#N canvas 500 106 412 472 10;
#X declare -path netpd-server/includes;
#X declare -path osc;
#N canvas 519 214 830 401 tpf.communication 0;
#X obj 7 8 r SERVER;
#X obj 7 74 s \$0.from;
#X obj 488 14 r SERVER;
#X obj 488 35 route socket;
#X obj 488 84 s \$0.client;
#X obj 8 113 r \$0.to;
#X obj 8 287 list trim;
#X obj 8 308 s SERVER;
#X obj 8 264 list prepend;
#X msg 88 202 list to send \$1;
#N canvas 308 288 213 161 tcp.prepare 0;
#X obj 20 28 t b a;
#X obj 20 98 list append;
#X obj 52 55 s to.tcp.prepare;
#X obj 52 74 r from.tcp.prepare;
#X obj 20 5 inlet;
#X obj 20 122 outlet;
#X connect 0 0 1 0;
#X connect 0 1 2 0;
#X connect 1 0 5 0;
#X connect 3 0 1 1;
#X connect 4 0 0 0;
#X restore 8 241 pd tcp.prepare;
#X obj 88 180 r \$0.client;
#X obj 8 137 list split 1;
#X obj 8 180 list append;
#X obj 7 51 routeOSC /tpf;
#X msg 8 160 symbol /s/tpf\$1;
#X obj 7 28 route server;
#X obj 8 221 packOSC;
#X obj 8 200 list trim;
#X obj 396 137 r \$0.broadcast;
#X obj 396 309 list trim;
#X obj 396 330 s SERVER;
#N canvas 278 363 213 161 tcp.prepare 0;
#X obj 20 28 t b a;
#X obj 20 98 list append;
#X obj 52 55 s to.tcp.prepare;
#X obj 52 74 r from.tcp.prepare;
#X obj 20 5 inlet;
#X obj 20 122 outlet;
#X connect 0 0 1 0;
#X connect 0 1 2 0;
#X connect 1 0 5 0;
#X connect 3 0 1 1;
#X connect 4 0 0 0;
#X restore 396 263 pd tcp.prepare;
#X obj 396 159 list split 1;
#X obj 396 202 list append;
#X msg 396 182 symbol /s/tpf\$1;
#X obj 396 243 packOSC;
#X obj 396 222 list trim;
#X obj 396 286 list prepend to broadcast;
#X obj 566 93 text search \$0.clients 1;
#X obj 623 165 text get \$0.clients;
#X msg 623 143 \$1 0 1;
#X obj 623 187 s \$0.room;
#X obj 566 116 sel -1, f 10;
#X obj 213 123 r \$0.to.room.members;
#N canvas 0 106 406 346 find.room.members 0;
#X obj 9 11 inlet;
#X obj 9 65 text size \$0.clients;
#X obj 9 111 until;
#X obj 9 134 f;
#X obj 9 157 t a a;
#X obj 51 150 + 1;
#X msg 48 112 0;
#X obj 9 251 route dummy;
#X obj 9 204 text get \$0.clients 0 2;
#X obj 9 34 b;
#X obj 9 274 outlet;
#X obj 9 227 list trim;
#X obj 94 252 r \$0.room;
#X obj 9 88 t a b, f 7;
#X connect 0 0 9 0;
#X connect 1 0 13 0;
#X connect 2 0 3 0;
#X connect 3 0 4 0;
#X connect 4 0 8 0;
#X connect 4 1 5 0;
#X connect 5 0 3 1;
#X connect 6 0 3 1;
#X connect 7 0 10 0;
#X connect 8 0 11 0;
#X connect 9 0 1 0;
#X connect 11 0 7 0;
#X connect 12 0 7 1;
#X connect 13 0 2 0;
#X connect 13 1 6 0;
#X restore 213 209 pd find.room.members;
#X obj 213 146 t b a;
#X obj 213 232 list append;
#X obj 213 255 t a a, f 7;
#X msg 252 277 \$1;
#X obj 252 301 s \$0.to.client;
#X obj 116 159 r \$0.to.client;
#X obj 213 325 list split 1;
#X obj 247 350 s \$0.to;
#X obj 488 58 t a a;
#X connect 0 0 16 0;
#X connect 2 0 3 0;
#X connect 3 0 44 0;
#X connect 5 0 12 0;
#X connect 6 0 7 0;
#X connect 8 0 6 0;
#X connect 9 0 8 1;
#X connect 10 0 8 0;
#X connect 11 0 9 0;
#X connect 12 0 15 0;
#X connect 12 1 13 1;
#X connect 13 0 18 0;
#X connect 14 0 1 0;
#X connect 15 0 13 0;
#X connect 16 0 14 0;
#X connect 17 0 10 0;
#X connect 18 0 17 0;
#X connect 19 0 23 0;
#X connect 20 0 21 0;
#X connect 22 0 28 0;
#X connect 23 0 25 0;
#X connect 23 1 24 1;
#X connect 24 0 27 0;
#X connect 25 0 24 0;
#X connect 26 0 22 0;
#X connect 27 0 26 0;
#X connect 28 0 20 0;
#X connect 29 0 33 0;
#X connect 30 0 32 0;
#X connect 31 0 30 0;
#X connect 33 1 31 0;
#X connect 34 0 36 0;
#X connect 35 0 37 0;
#X connect 36 0 35 0;
#X connect 36 1 37 1;
#X connect 37 0 38 0;
#X connect 38 0 42 0;
#X connect 38 1 39 0;
#X connect 39 0 40 0;
#X connect 41 0 9 0;
#X connect 42 1 43 0;
#X connect 44 0 4 0;
#X connect 44 1 29 0;
#X restore 13 132 pd tpf.communication;
#N canvas 662 138 664 550 register/name 0;
#X obj 147 385 s \$0.to;
#X obj 7 11 r \$0.from;
#X msg 147 363 /register/done;
#X obj 7 52 list prepend;
#X obj 87 52 r \$0.client;
#X obj 270 294 loadbang;
#X obj 233 337 text set \$0.clients;
#X msg 270 314 1e+06;
#X obj 7 469 s \$0.add.connection;
#X msg 120 413 /updated/clients;
#X obj 120 343 t b b;
#X obj 296 199 r SERVER;
#X obj 296 219 route ip;
#X obj 233 265 list append;
#X msg 296 239 symbol \$1.\$2.\$3.\$4;
#X obj 7 31 routeOSC /register/client;
#X msg 7 85 list \$2 \$1 \$3;
#X text 313 268 <room> <id> <nick> <ip>;
#X text 102 87 <room> <id> <nick>;
#X text 158 52 <id>;
#X text 164 31 <room> <nick>;
#X msg 7 441 \$2;
#N canvas 771 446 251 224 first.in.room 0;
#X obj 10 11 inlet;
#X obj 10 180 outlet;
#X obj 73 107 sel -1;
#X msg 73 132 1;
#X msg 106 133 0;
#X obj 73 84 text search \$0.clients 0;
#X obj 10 156 list append;
#X obj 10 34 t a a;
#X msg 73 57 symbol \$1;
#X connect 0 0 7 0;
#X connect 2 0 3 0;
#X connect 2 1 4 0;
#X connect 3 0 6 1;
#X connect 4 0 6 1;
#X connect 5 0 2 0;
#X connect 6 0 1 0;
#X connect 7 0 6 0;
#X connect 7 1 8 0;
#X connect 8 0 5 0;
#X restore 233 174 pd first.in.room;
#X obj 120 438 s \$0.to.room.members;
#X obj 7 120 t a b a a, f 57;
#X msg 346 147 symbol \$1;
#X obj 346 170 s \$0.room;
#X text 410 167 tell room upon new client connection;
#X connect 1 0 15 0;
#X connect 2 0 0 0;
#X connect 3 0 16 0;
#X connect 4 0 3 1;
#X connect 5 0 7 0;
#X connect 7 0 6 1;
#X connect 9 0 23 0;
#X connect 10 0 9 0;
#X connect 10 1 2 0;
#X connect 11 0 12 0;
#X connect 12 0 14 0;
#X connect 13 0 6 0;
#X connect 14 0 13 1;
#X connect 15 0 3 0;
#X connect 16 0 24 0;
#X connect 21 0 8 0;
#X connect 22 0 13 0;
#X connect 24 0 21 0;
#X connect 24 1 10 0;
#X connect 24 2 22 0;
#X connect 24 3 25 0;
#X connect 25 0 26 0;
#X restore 13 174 pd register/name;
#N canvas 575 329 337 132 protol/version 0;
#X obj 17 15 r \$0.from;
#X obj 17 75 s \$0.to;
#X obj 17 35 routeOSC /protocol/version;
#X msg 17 55 /protocol/version 2 0;
#X connect 0 0 2 0;
#X connect 2 0 3 0;
#X connect 3 0 1 0;
#X restore 13 153 pd protol/version;
#X obj 13 50 text define \$0.clients;
#N canvas 506 230 494 528 unregister/name 0;
#X text 11 9 We want disconnceting clients to automatically unregister
by IP and port.;
#X obj 14 50 r SERVER;
#X obj 14 90 t a a;
#X obj 15 114 -;
#X obj 15 135 sel -1;
#X text 68 136 <- detects a disconnecting client;
#X obj 15 163 list append;
#X obj 183 300 text delete \$0.clients;
#X obj 15 248 sel -1;
#X obj 14 71 route num_of_clients socket;
#X obj 15 200 t a a, f 9;
#X obj 48 431 f;
#X obj 48 452 s \$0.del.connection;
#X msg 93 387 /updated/clients;
#X obj 15 222 text search \$0.clients 1;
#N canvas 257 106 450 233 reassign.leader 0;
#X obj 10 11 inlet;
#X obj 10 88 text search \$0.clients 0;
#X obj 10 111 sel -1;
#X obj 43 182 text set \$0.clients 0 3;
#X obj 43 135 t b a;
#X msg 43 158 1;
#X connect 0 0 1 0;
#X connect 1 0 2 0;
#X connect 2 1 4 0;
#X connect 4 0 5 0;
#X connect 4 1 3 1;
#X connect 5 0 3 0;
#X restore 138 359 pd reassign.leader;
#X obj 138 332 symbol;
#X obj 93 412 s \$0.to.room.members;
#X obj 193 332 r \$0.room;
#X obj 48 273 t b b b a, f 23;
#X connect 1 0 9 0;
#X connect 2 0 3 1;
#X connect 2 1 3 0;
#X connect 3 0 4 0;
#X connect 4 0 6 0;
#X connect 6 0 10 0;
#X connect 8 1 19 0;
#X connect 9 0 2 0;
#X connect 9 1 6 1;
#X connect 10 0 14 0;
#X connect 10 1 11 1;
#X connect 11 0 12 0;
#X connect 13 0 17 0;
#X connect 14 0 8 0;
#X connect 16 0 15 0;
#X connect 18 0 16 1;
#X connect 19 0 11 0;
#X connect 19 1 13 0;
#X connect 19 2 16 0;
#X connect 19 3 7 0;
#X restore 13 195 pd unregister/name;
#X obj 13 71 text define \$0.connections;
#N canvas 584 106 603 600 manage.connections 0;
#X obj 25 21 r \$0.add.connection;
#X obj 52 273 text get \$0.clients;
#X obj 89 210 loadbang;
#X obj 89 230 t b b;
#X obj 52 85 text size \$0.clients;
#X obj 52 61 t b a;
#X obj 52 105 - 1;
#X obj 52 125 t a b;
#X obj 52 145 until;
#X obj 52 165 f;
#X obj 52 185 t a a;
#X obj 95 176 + 1;
#X msg 92 147 0;
#X obj 52 366 pack f f;
#X obj 170 175 t a;
#X obj 52 498 text set \$0.connections;
#X obj 97 457 loadbang;
#X msg 97 477 8e+06;
#X obj 311 65 t b a;
#X obj 311 128 until;
#X obj 311 148 f;
#X obj 311 215 text get \$0.connections;
#X msg 311 257 \$1;
#X msg 343 257 \$2;
#X obj 311 291 sel;
#X obj 343 291 sel;
#X obj 311 189 t a a a;
#X obj 311 332 f;
#X obj 382 292 t a;
#X obj 457 197 t a;
#X obj 311 356 text delete \$0.connections;
#X obj 311 108 t a a;
#X obj 311 168 - 1;
#X obj 311 88 text size \$0.connections;
#X obj 311 235 t a a;
#X obj 52 433 list append;
#X obj 284 25 r \$0.del.connection;
#X obj 284 426 b;
#X obj 25 41 t b a;
#X obj 284 45 t b a;
#X msg 25 530 /updated/mylinks;
#X msg 89 252 0;
#X msg 125 251 2;
#X obj 52 296 t a b;
#X obj 52 319 list trim;
#X obj 52 342 route dummy;
#X obj 52 388 t a b a;
#N canvas 744 591 286 264 assign.unique.id 0;
#X obj 40 26 inlet;
#X obj 40 46 t b b;
#X obj 40 66 until;
#X obj 40 86 f;
#X msg 81 65 0;
#X obj 40 127 text search \$0.connections 2;
#X obj 40 147 sel -1;
#X obj 96 97 + 1;
#X obj 40 106 t a a a;
#X obj 40 167 t b b;
#X obj 40 187 f;
#X obj 150 96 t b;
#X obj 40 207 outlet;
#X connect 0 0 1 0;
#X connect 1 0 2 0;
#X connect 1 1 4 0;
#X connect 2 0 3 0;
#X connect 3 0 8 0;
#X connect 4 0 3 1;
#X connect 5 0 6 0;
#X connect 6 0 9 0;
#X connect 7 0 3 1;
#X connect 8 0 5 0;
#X connect 8 1 10 1;
#X connect 8 2 7 0;
#X connect 9 0 10 0;
#X connect 9 1 11 0;
#X connect 10 0 12 0;
#X connect 11 0 2 1;
#X restore 115 411 pd assign.unique.id;
#X obj 25 557 s \$0.to.room.members;
#X obj 115 318 r \$0.room;
#X connect 0 0 38 0;
#X connect 1 0 43 0;
#X connect 2 0 3 0;
#X connect 3 0 41 0;
#X connect 3 1 42 0;
#X connect 4 0 6 0;
#X connect 5 0 4 0;
#X connect 5 1 14 0;
#X connect 6 0 7 0;
#X connect 7 0 8 0;
#X connect 7 1 12 0;
#X connect 8 0 9 0;
#X connect 9 0 10 0;
#X connect 10 0 1 0;
#X connect 10 1 11 0;
#X connect 11 0 9 1;
#X connect 12 0 9 1;
#X connect 13 0 46 0;
#X connect 14 0 13 1;
#X connect 16 0 17 0;
#X connect 17 0 15 1;
#X connect 18 0 33 0;
#X connect 18 1 29 0;
#X connect 19 0 20 0;
#X connect 20 0 32 0;
#X connect 21 0 34 0;
#X connect 22 0 24 0;
#X connect 23 0 25 0;
#X connect 24 0 27 0;
#X connect 25 0 27 0;
#X connect 26 0 21 0;
#X connect 26 1 28 0;
#X connect 26 2 20 1;
#X connect 27 0 30 0;
#X connect 28 0 27 1;
#X connect 29 0 25 1;
#X connect 29 0 24 1;
#X connect 31 0 19 0;
#X connect 31 1 20 1;
#X connect 32 0 26 0;
#X connect 33 0 31 0;
#X connect 34 0 22 0;
#X connect 34 1 23 0;
#X connect 35 0 15 0;
#X connect 36 0 39 0;
#X connect 37 0 40 0;
#X connect 38 0 40 0;
#X connect 38 1 5 0;
#X connect 39 0 37 0;
#X connect 39 1 18 0;
#X connect 40 0 48 0;
#X connect 41 0 1 1;
#X connect 42 0 1 2;
#X connect 43 0 44 0;
#X connect 44 0 45 0;
#X connect 45 0 13 0;
#X connect 46 0 35 0;
#X connect 46 1 47 0;
#X connect 47 0 35 1;
#X connect 49 0 45 1;
#X restore 13 216 pd manage.connections;
#N canvas 470 106 395 439 client.list 0;
#X obj 12 22 r \$0.from;
#X obj 12 47 routeOSC /refresh/clients;
#X obj 64 95 text size \$0.clients;
#X obj 64 140 until;
#X obj 64 162 f;
#X obj 64 183 t a a;
#X obj 107 177 + 1;
#X msg 105 140 0;
#X obj 64 206 text get \$0.clients;
#X obj 12 73 t b b b, f 18;
#X obj 64 324 list trim;
#X obj 12 396 s \$0.to;
#X obj 64 299 list prepend /clients;
#X msg 12 358 /clients/end;
#X msg 117 358 /clients/begin;
#X obj 64 117 t a b;
#X obj 64 239 list trim;
#X obj 64 270 route dummy;
#X obj 127 238 r \$0.room;
#X connect 0 0 1 0;
#X connect 1 0 9 0;
#X connect 2 0 15 0;
#X connect 3 0 4 0;
#X connect 4 0 5 0;
#X connect 5 0 8 0;
#X connect 5 1 6 0;
#X connect 6 0 4 1;
#X connect 7 0 4 1;
#X connect 8 0 16 0;
#X connect 9 0 13 0;
#X connect 9 1 2 0;
#X connect 9 2 14 0;
#X connect 10 0 11 0;
#X connect 12 0 10 0;
#X connect 13 0 11 0;
#X connect 14 0 11 0;
#X connect 15 0 3 0;
#X connect 15 1 7 0;
#X connect 16 0 17 0;
#X connect 17 0 12 0;
#X connect 18 0 17 1;
#X restore 13 237 pd client.list;
#N canvas 420 106 432 493 mylink.list 0;
#X obj 12 9 r \$0.from;
#X obj 31 123 until;
#X obj 31 143 f;
#X obj 31 163 t a a;
#X obj 74 157 + 1;
#X msg 74 127 0;
#X obj 12 56 t b b b;
#X obj 31 379 list trim;
#X obj 12 33 routeOSC /refresh/mylinks;
#X obj 31 83 text size \$0.connections;
#X obj 31 186 text get \$0.connections;
#X obj 31 356 list prepend /mylinks;
#X msg 12 400 /mylinks/end;
#X msg 114 400 /mylinks/begin;
#X obj 214 251 r \$0.client;
#X obj 31 206 t a a a;
#X msg 31 231 \$1 \$2;
#X obj 31 251 unpack f f;
#X obj 31 281 sel;
#X obj 31 301 f;
#X obj 97 251 unpack f f;
#X obj 97 281 sel;
#X obj 97 301 f;
#X msg 97 231 \$2 \$1;
#X msg 321 248 \$3;
#X obj 31 328 pack f f, f 48;
#X obj 31 103 t a b;
#X obj 12 426 s \$0.to;
#X connect 0 0 8 0;
#X connect 1 0 2 0;
#X connect 2 0 3 0;
#X connect 3 0 10 0;
#X connect 3 1 4 0;
#X connect 4 0 2 1;
#X connect 5 0 2 1;
#X connect 6 0 12 0;
#X connect 6 1 9 0;
#X connect 6 2 13 0;
#X connect 7 0 27 0;
#X connect 8 0 6 0;
#X connect 9 0 26 0;
#X connect 10 0 15 0;
#X connect 11 0 7 0;
#X connect 12 0 27 0;
#X connect 13 0 27 0;
#X connect 14 0 21 1;
#X connect 14 0 18 1;
#X connect 15 0 16 0;
#X connect 15 1 23 0;
#X connect 15 2 24 0;
#X connect 16 0 17 0;
#X connect 17 0 18 0;
#X connect 17 1 19 1;
#X connect 18 0 19 0;
#X connect 19 0 25 0;
#X connect 20 0 21 0;
#X connect 20 1 22 1;
#X connect 21 0 22 0;
#X connect 22 0 25 0;
#X connect 23 0 20 0;
#X connect 24 0 25 1;
#X connect 25 0 11 0;
#X connect 26 0 1 0;
#X connect 26 1 5 0;
#X restore 13 258 pd mylink.list;
#X obj 13 91 text define \$0.params;
#N canvas 918 562 355 291 reset/all 0;
#X obj 29 21 r \$0.from;
#X obj 95 133 text delete \$0.clients;
#X obj 75 162 text delete \$0.connections;
#X obj 56 190 text delete \$0.params;
#X obj 29 61 t b b;
#X msg 56 81 -1;
#X obj 56 101 t a a a;
#X msg 29 226 /register/again;
#X obj 29 246 s \$0.broadcast;
#X obj 29 41 routeOSC /reset/clients;
#X connect 0 0 9 0;
#X connect 4 0 7 0;
#X connect 4 1 5 0;
#X connect 5 0 6 0;
#X connect 6 0 3 0;
#X connect 6 1 2 0;
#X connect 6 2 1 0;
#X connect 7 0 8 0;
#X connect 9 0 4 0;
#X restore 13 300 pd reset/all;
#X obj 13 341 netpd-server/netpd-server;
#X obj 13 363 declare -path netpd-server/includes;
#X obj 13 13 declare -path osc;
#N canvas 0 106 690 442 param.list 0;
#X obj 12 13 r \$0.from;
#X obj 12 33 routeOSC /params;
#X obj 12 53 routeOSC /end /begin;
#X msg 70 75 1;
#X msg 39 93 0;
#X obj 12 73 t b b;
#X obj 129 129 spigot;
#X msg 12 214 /updated/params;
#X obj 351 18 r \$0.from;
#X obj 351 40 routeOSC /refresh/params;
#X obj 351 61 b;
#X obj 351 81 text size \$0.params;
#X obj 351 101 t b a b;
#X obj 370 125 t a b;
#X obj 370 145 until;
#X obj 370 165 f;
#X msg 410 145 0;
#X obj 370 215 text get \$0.params;
#X obj 370 306 list prepend /params;
#X obj 370 326 list trim;
#X msg 389 351 /params/begin;
#X msg 351 375 /params/end;
#X obj 370 185 t a a;
#X obj 421 178 + 1;
#N canvas 173 289 359 441 update.params 0;
#X obj 17 327 text set \$0.params;
#X obj 17 304 list;
#X obj 52 282 loadbang;
#X msg 52 302 8e+06;
#X obj 17 17 inlet;
#X obj 17 88 t a a;
#X obj 17 37 list;
#X obj 17 161 sel -1;
#X obj 50 262 text set \$0.params;
#X obj 120 221 loadbang;
#X obj 50 184 t b a;
#X obj 50 204 list append;
#X obj 17 61 list prepend;
#X obj 86 35 r \$0.room;
#X obj 17 110 list split 2;
#X obj 17 140 text search \$0.params 0 1;
#X msg 120 241 2;
#X connect 1 0 0 0;
#X connect 2 0 3 0;
#X connect 3 0 0 1;
#X connect 4 0 6 0;
#X connect 5 0 14 0;
#X connect 5 1 1 1;
#X connect 6 0 12 0;
#X connect 7 0 1 0;
#X connect 7 1 10 0;
#X connect 9 0 16 0;
#X connect 10 0 11 0;
#X connect 10 1 8 1;
#X connect 11 0 8 0;
#X connect 12 0 5 0;
#X connect 13 0 12 1;
#X connect 14 0 15 0;
#X connect 14 1 11 1;
#X connect 15 0 7 0;
#X connect 16 0 8 2;
#X restore 129 172 pd update.params;
#X obj 370 284 route dummy;
#X obj 370 262 list trim;
#X obj 351 408 s \$0.to;
#X obj 12 238 s \$0.to.room.members;
#X obj 433 259 r \$0.room;
#X connect 0 0 1 0;
#X connect 1 0 2 0;
#X connect 2 0 5 0;
#X connect 2 1 3 0;
#X connect 2 2 6 0;
#X connect 3 0 6 1;
#X connect 4 0 6 1;
#X connect 5 0 7 0;
#X connect 5 1 4 0;
#X connect 6 0 24 0;
#X connect 7 0 28 0;
#X connect 8 0 9 0;
#X connect 9 0 10 0;
#X connect 10 0 11 0;
#X connect 11 0 12 0;
#X connect 12 0 21 0;
#X connect 12 1 13 0;
#X connect 12 2 20 0;
#X connect 13 0 14 0;
#X connect 13 1 16 0;
#X connect 14 0 15 0;
#X connect 15 0 22 0;
#X connect 16 0 15 1;
#X connect 17 0 26 0;
#X connect 18 0 19 0;
#X connect 19 0 27 0;
#X connect 20 0 27 0;
#X connect 21 0 27 0;
#X connect 22 0 17 0;
#X connect 22 1 23 0;
#X connect 23 0 15 1;
#X connect 25 0 18 0;
#X connect 26 0 25 0;
#X connect 29 0 25 1;
#X restore 13 279 pd param.list;
#N canvas 0 106 429 282 DEBUG 0;
#X obj 17 15 r \$0.from;
#X obj 17 91 print FROM;
#X obj 23 124 r \$0.to;
#X obj 89 45 r \$0.client;
#X obj 17 68 list prepend;
#X obj 92 155 r \$0.client;
#X obj 23 178 list prepend;
#X obj 23 203 print TO__;
#X obj 17 38 spigot 0;
#X obj 23 147 spigot 0;
#X obj 204 13 inlet;
#X obj 170 155 r \$0.to.client;
#X connect 0 0 8 0;
#X connect 2 0 9 0;
#X connect 3 0 4 1;
#X connect 4 0 1 0;
#X connect 5 0 6 1;
#X connect 6 0 7 0;
#X connect 8 0 4 0;
#X connect 9 0 6 0;
#X connect 10 0 9 1;
#X connect 10 0 8 1;
#X connect 11 0 6 1;
#X restore 275 285 pd DEBUG;
#X obj 275 258 tgl 15 0 empty empty empty 17 7 0 10 -262144 -1 -1 0
1;
#X connect 16 0 15 0;
