#N canvas 633 72 578 391 10;
#X declare -lib aoo;
#X obj 16 20 declare -lib aoo;
#X obj 16 163 aoo_server 12043;
#X obj 292 31 loadbang;
#X msg 319 77 read -c tpf-server.conf;
#X obj 292 54 t b b;
#X obj 319 103 text define tpf-server-config;
#X obj 292 241 text get tpf-server-config;
#X obj 292 330 s \$0.tpf-server.settings;
#X obj 16 95 r \$0.tpf-server.settings;
#X obj 292 125 text size tpf-server-config;
#X obj 292 148 t a b, f 8;
#X obj 292 171 until;
#X obj 292 194 f;
#X obj 292 217 t a a;
#X obj 340 206 + 1;
#X msg 337 171 0;
#X obj 292 284 t a a;
#X obj 16 213 print CLIENT_COUNT;
#X obj 109 188 print EVENTS;
#X obj 319 308 print LOAD_SETTING;
#X obj 292 264 list trim;
#X connect 1 0 17 0;
#X connect 1 1 18 0;
#X connect 2 0 4 0;
#X connect 3 0 5 0;
#X connect 4 0 9 0;
#X connect 4 1 3 0;
#X connect 6 0 20 0;
#X connect 8 0 1 0;
#X connect 9 0 10 0;
#X connect 10 0 11 0;
#X connect 10 1 15 0;
#X connect 11 0 12 0;
#X connect 12 0 13 0;
#X connect 13 0 6 0;
#X connect 13 1 14 0;
#X connect 14 0 12 1;
#X connect 15 0 12 1;
#X connect 16 0 7 0;
#X connect 16 1 19 0;
#X connect 20 0 16 0;
