#N canvas 620 160 996 816 10;
#X declare -path mrpeach;
#N canvas 945 589 439 344 detect_token 0;
#X obj 12 41 route 95;
#X obj 12 65 route 84;
#X obj 12 89 route 79;
#X obj 12 113 route 75;
#X obj 12 137 route 69;
#X obj 12 161 route 78;
#X obj 12 185 route 32;
#X obj 12 16 inlet;
#X obj 12 282 outlet;
#X obj 12 209 t b a;
#X obj 12 234 list append;
#X obj 12 257 list tosymbol;
#X connect 0 0 1 0;
#X connect 1 0 2 0;
#X connect 2 0 3 0;
#X connect 3 0 4 0;
#X connect 4 0 5 0;
#X connect 5 0 6 0;
#X connect 6 0 9 0;
#X connect 7 0 0 0;
#X connect 9 0 10 0;
#X connect 9 1 10 1;
#X connect 10 0 11 0;
#X connect 11 0 8 0;
#X restore 158 287 pd detect_token;
#X msg 48 71 sendto \$1 \$2 97 98 99 59 10;
#X msg 66 10 list 127.0.0.1 60692;
#X msg 123 40 list 127.0.0.1 34257;
#X obj 446 72 text define \$0.links;
#X obj 446 95 text define \$0.tokens;
#X obj 73 131 r \$0.to;
#X obj 73 197 s \$0.from;
#X obj 274 241 s \$0.addr;
#X obj 49 98 s \$0.to;
#X obj 84 236 r \$0.from;
#X obj 239 384 text search \$0.tokens 0;
#X obj 239 358 t a a, f 11;
#X obj 239 407 sel -1, f 27;
#X obj 425 460 text get \$0.tokens;
#X obj 488 508 r \$0.addr;
#X obj 425 531 list append;
#X obj 425 555 t a a;
#X msg 425 601 list \$3 \$4 \$1 \$2;
#X obj 425 644 text set \$0.links;
#X msg 452 580 list \$1 \$2 \$3 \$4;
#X msg 567 599 1e+15;
#X obj 567 574 loadbang;
#X obj 239 441 symbol, f 11;
#X obj 302 461 r \$0.addr;
#X obj 239 488 list append;
#X msg 425 483 list \$2 \$3;
#X msg 318 514 1e+15;
#X obj 318 489 loadbang;
#X obj 239 551 text set \$0.tokens;
#X obj 398 435 t a a;
#X obj 398 668 text delete \$0.tokens;
#X obj 158 310 t b a, f 14;
#X msg 158 335 0;
#X msg 195 334 1;
#X obj 84 382 f;
#X obj 84 405 sel 1;
#X obj 84 428 list append;
#X obj 84 259 t b a a b, f 19;
#X obj 129 630 text search \$0.links 0 1;
#X obj 192 577 r \$0.addr;
#X obj 129 602 list append;
#X obj 129 682 text get \$0.links;
#X obj 129 653 sel -1;
#X msg 129 709 list \$3 \$4;
#X obj 129 763 list trim;
#X obj 84 786 s \$0.to;
#X msg 362 44 clear;
#X obj 129 740 list prepend to;
#X obj 490 230 declare -path mrpeach;
#X obj 274 188 route from;
#X msg 274 215 list \$1.\$2.\$3.\$4 \$5;
#X obj 73 164 udpsrvr;
#X msg 271 70 listen 4460;
#X obj 271 93 s \$0.to;
#X obj 271 43 loadbang;
#X obj 84 451 t a b, f 8;
#X connect 0 0 32 0;
#X connect 1 0 9 0;
#X connect 2 0 1 0;
#X connect 3 0 1 0;
#X connect 6 0 52 0;
#X connect 10 0 38 0;
#X connect 11 0 13 0;
#X connect 12 0 11 0;
#X connect 12 1 23 1;
#X connect 13 0 23 0;
#X connect 13 1 30 0;
#X connect 14 0 26 0;
#X connect 15 0 16 1;
#X connect 16 0 17 0;
#X connect 17 0 18 0;
#X connect 17 1 20 0;
#X connect 18 0 19 0;
#X connect 20 0 19 0;
#X connect 21 0 19 1;
#X connect 22 0 21 0;
#X connect 23 0 25 0;
#X connect 24 0 25 1;
#X connect 25 0 29 0;
#X connect 26 0 16 0;
#X connect 27 0 29 1;
#X connect 28 0 27 0;
#X connect 30 0 31 0;
#X connect 30 1 14 0;
#X connect 32 0 33 0;
#X connect 32 1 12 0;
#X connect 33 0 35 1;
#X connect 34 0 35 1;
#X connect 35 0 36 0;
#X connect 36 0 37 0;
#X connect 37 0 56 0;
#X connect 38 0 35 0;
#X connect 38 1 37 1;
#X connect 38 2 0 0;
#X connect 38 3 34 0;
#X connect 39 0 43 0;
#X connect 40 0 41 1;
#X connect 41 0 39 0;
#X connect 42 0 44 0;
#X connect 43 1 42 0;
#X connect 44 0 48 0;
#X connect 45 0 46 0;
#X connect 47 0 4 0;
#X connect 47 0 5 0;
#X connect 48 0 45 0;
#X connect 50 0 51 0;
#X connect 51 0 8 0;
#X connect 52 0 7 0;
#X connect 52 1 50 0;
#X connect 53 0 54 0;
#X connect 55 0 53 0;
#X connect 56 0 46 0;
#X connect 56 1 41 0;
