#N canvas 479 303 490 443 10;
#X obj 26 193 t b b a b b, f 49;
#X msg 317 311 listen 0;
#X msg 98 221 disconnect;
#X obj 69 358 netreceive -u -b -f \$1;
#X obj 26 293 f \$1;
#X msg 26 322 listen \$1;
#X obj 198 391 outlet FROM;
#X obj 69 384 outlet DATA;
#X obj 26 23 inlet;
#X obj 26 47 route sendto;
#X obj 26 119 list split 2;
#X obj 244 220 list append;
#X obj 26 94 t a a, f 46;
#X msg 299 124 list \$1 \$2;
#X obj 26 70 list;
#X obj 26 142 list prepend send;
#X obj 26 165 list trim;
#X obj 244 243 list append \$1;
#X msg 244 268 connect \$1 \$2 \$3;
#X obj 171 295 netsend -u -b;
#X connect 0 0 4 0;
#X connect 0 1 2 0;
#X connect 0 2 19 0;
#X connect 0 3 11 0;
#X connect 0 4 1 0;
#X connect 1 0 3 0;
#X connect 2 0 19 0;
#X connect 3 0 7 0;
#X connect 3 1 6 0;
#X connect 4 0 5 0;
#X connect 5 0 3 0;
#X connect 8 0 9 0;
#X connect 9 0 14 0;
#X connect 10 1 15 0;
#X connect 11 0 17 0;
#X connect 12 0 10 0;
#X connect 12 1 13 0;
#X connect 13 0 11 1;
#X connect 14 0 12 0;
#X connect 15 0 16 0;
#X connect 16 0 0 0;
#X connect 17 0 18 0;
#X connect 18 0 19 0;
